<svg xmlns="http://www.w3.org/2000/svg" xmlns:xlink="http://www.w3.org/1999/xlink" viewBox="0,0,256,256" width="20px"
    height="20px" fill-rule="nonzero">
    <g fill="#d34f4f" fill-rule="nonzero" stroke="none" stroke-width="1" stroke-linecap="butt" stroke-linejoin="miter"
        stroke-miterlimit="10" stroke-dasharray="" stroke-dashoffset="0" font-family="none" font-weight="none"
        font-size="none" text-anchor="none" style="mix-blend-mode: normal">
        <g transform="scale(5.12,5.12)">
            <path
                d="M24.98438,2.98633c-0.04844,0.00105 -0.09675,0.00562 -0.14453,0.01367h-1.47266c-0.11793,0 -0.26141,0.00078 -0.41992,0.01172c-6.5271,0.18953 -12.05466,4.89173 -13.30273,11.25391l-1.58789,0.64648c-0.052,0.021 -0.10434,0.04913 -0.15234,0.07813c-0.98,0.609 -1.64903,1.59859 -1.83203,2.68359c-0.059,0.293 -0.08136,0.58266 -0.06836,0.84766l0.16016,5.08008c0.044,1.098 0.68152,2.08302 1.60352,2.54102l0.78125,0.45898c-0.13572,3.07708 -0.16469,5.86498 -0.06055,7.96875c0,0.00065 0,0.0013 0,0.00195c0.01552,0.29483 0.07556,0.57043 0.16016,0.82422c0.2168,0.65039 0.66093,1.19085 1.22852,1.55469c0.00518,0.0033 0.01039,0.00656 0.01563,0.00977c0.80293,0.49559 1.95817,1.07534 3.22461,1.66016c0.13979,0.86811 0.54248,1.72462 1.10937,2.5957c0.70164,1.07813 1.66334,2.16664 2.78711,3.1582c2.24754,1.98313 5.13711,3.625 8.03711,3.625c2.9,0 5.78761,-1.64187 8.03516,-3.625c1.12377,-0.99156 2.08547,-2.08008 2.78711,-3.1582c0.56773,-0.87237 0.97167,-1.73018 1.11133,-2.59961c1.2641,-0.58383 2.41714,-1.16148 3.21875,-1.65625c0.00131,-0.0013 0.00261,-0.0026 0.00391,-0.00391c0.83295,-0.52059 1.35249,-1.41841 1.39844,-2.38672c0.1048,-2.11691 0.07692,-4.92511 -0.06055,-8.02539l0.63086,-0.37109c0.98,-0.49 1.61711,-1.47698 1.66211,-2.58398l0.1582,-5.05469c0.012,-0.279 -0.0105,-0.56903 -0.0625,-0.83203c-0.188,-1.115 -0.85789,-2.10289 -1.83789,-2.71289c-0.048,-0.029 -0.09839,-0.05712 -0.15039,-0.07812l-1.49023,-0.60547c-1.23245,-6.38272 -6.76765,-11.10499 -13.30859,-11.29492c-0.15851,-0.01094 -0.302,-0.01172 -0.41992,-0.01172h-1.57227c-0.05615,-0.00939 -0.113,-0.01396 -0.16992,-0.01367zM23.36719,5h0.63281v10c-0.0051,0.36064 0.18438,0.69608 0.49587,0.87789c0.3115,0.18181 0.69676,0.18181 1.00825,0c0.3115,-0.18181 0.50097,-0.51725 0.49587,-0.87789v-10h0.72656c0.03763,0 0.0528,0.00173 0.08594,0.00195l1.12109,12.78711c-1.17555,0.14044 -2.18616,0.21094 -2.88672,0.21094c-0.71827,0 -1.76636,-0.07677 -2.98047,-0.22461l1.12109,-12.77148c0.05645,-0.00135 0.101,-0.00391 0.17969,-0.00391zM28.83789,5.20117c4.8891,0.86547 8.81065,4.68544 9.68945,9.67383c-0.0029,0.02284 -0.01042,0.04556 -0.01172,0.06836c-2.4952,1.26316 -5.77674,2.08499 -8.59961,2.55664zM21.16211,5.2168l-1.07617,12.26758c-2.81106,-0.47558 -6.0579,-1.29671 -8.5293,-2.55273c0.85309,-4.9846 4.74103,-8.81396 9.60547,-9.71484zM11.31836,16.94336c4.73563,2.23237 10.87099,3.05664 13.72852,3.05664c2.85731,0 8.99302,-0.82466 13.72852,-3.05664c0.16833,1.50482 0.32012,3.00928 0.4375,4.49609c-6.3451,1.81477 -10.64406,8.50627 -11.04492,18.12695c-0.62491,0.13581 -1.24708,0.26416 -1.80273,0.33008l0.92188,-11.64648c0.16,-1.98 1.47008,-3.67008 3.33008,-4.33008l5.45898,-1.91016c0.92,-0.32 1.63039,-1.07 1.90039,-2l0.57031,-2.00977c-6.5,3 -11.5,3 -13.5,3c-0.99,0 -2.72,0.00086 -5,-0.36914c-0.92,-0.14 -1.92,-0.35063 -3,-0.64062c-0.33,-0.08 -0.66,-0.1693 -1,-0.2793c-0.64,-0.19 -1.31,-0.41187 -2,-0.67188c-0.8,-0.3 -1.64,-0.63906 -2.5,-1.03906l0.57031,2.00977c0.27,0.93 0.98039,1.68 1.90039,2l0.0293,0.00977l2,0.70117l1,0.34961l2.42969,0.84961c0.2,0.07 0.39031,0.15023 0.57031,0.24023c1.55,0.78 2.61977,2.31984 2.75977,4.08984l0.92188,11.64648c-0.55566,-0.06589 -1.17783,-0.19427 -1.80273,-0.33008c-0.40089,-9.62128 -4.69918,-16.31267 -11.04492,-18.12695c0.11738,-1.48681 0.26917,-2.99128 0.4375,-4.49609zM10.72852,23.42188c5.0837,1.65368 8.77596,7.11338 9.25195,15.67188c-3.53071,-1.03904 -7.29136,-2.75945 -9.02344,-3.82617c-0.21242,-0.13616 -0.34891,-0.3143 -0.41211,-0.50391c-0.03496,-0.10487 -0.05377,-0.20838 -0.05859,-0.29297v-0.00391c-0.13367,-2.704 -0.04558,-6.70678 0.24219,-11.04492zM39.36523,23.42188c0.05699,0.85918 0.11182,1.71484 0.15234,2.53906c-0.00318,0.07577 -0.00463,0.14891 0.00977,0.22461c0.15422,3.24536 0.18494,6.16692 0.08008,8.28516c0,0.0013 0,0.0026 0,0.00391c-0.01524,0.33023 -0.17498,0.60839 -0.46094,0.78711c-1.72908,1.0664 -5.49737,2.79135 -9.0332,3.83203c0.47599,-8.5585 4.16826,-14.01819 9.25195,-15.67187zM34.42969,39.72461c-0.07521,0.13311 -0.14474,0.26461 -0.23438,0.40234c-0.57961,0.89062 -1.43041,1.86461 -2.43164,2.74805c-2.00246,1.76687 -4.61289,3.125 -6.71289,3.125c-2.1,0 -4.71239,-1.35813 -6.71484,-3.125c-1.00123,-0.88344 -1.85203,-1.85742 -2.43164,-2.74805c-0.08873,-0.13633 -0.15596,-0.26662 -0.23047,-0.39844c1.64531,0.64496 3.40554,1.23636 5.11133,1.6582c0.0039,0.00133 0.0078,0.00263 0.01172,0.00391c0.99594,0.24642 1.97919,0.43394 2.90234,0.52148c0.47829,0.06555 0.92954,0.08789 1.34766,0.08789c0.41752,0 0.87012,-0.02255 1.34766,-0.08789c0.92316,-0.08754 1.90641,-0.27507 2.90234,-0.52148c1.71268,-0.42283 3.48066,-1.01814 5.13281,-1.66602z">
            </path>
        </g>
    </g>
</svg>